{"title":"Balwinder Singh Famous Ho Gaya (2014) - 1CD - DVDSCR-Rip - Hindi","uid":11111586,"size":739636326,"categoryP":"video","categoryS":"movies","magnet":"?xt=urn:btih:c8bc4515af2cf73e2da4b1c8b311aab3c38a7894&amp;dn=Balwinder+Singh+Famous+Ho+Gaya+%282014%29+-+1CD+-+DVDSCR-Rip+-+Hindi&amp;tr=udp%3A%2F%2Ftracker.openbittorrent.com%3A80&amp;tr=udp%3A%2F%2Fopen.demonii.com%3A1337&amp;tr=udp%3A%2F%2Ftracker.coppersurfer.tk%3A6969&amp;tr=udp%3A%2F%2Fexodus.desync.com%3A6969","seeders":0,"leechers":0,"uploader":"inovai","files":3,"time":1411802560,"description":"Balwinder Singh Famous Ho Gaya (2014) - 1CD - DVDSCR-Rip - Hindi - XviD - MP3 - Mafiaking - TeamTNT\n\nCover:\n &lt;a href=&quot;\nhttp://forum.primetimeshow.in/viewtopic.php?f=7&amp;t=734&quot; rel=&quot;nofollow&quot; target=&quot;_NEW&quot;&gt;\nhttp://forum.primetimeshow.in/viewtopic.php?f=7&amp;t=734&lt;/a&gt;\n\nScreenshots:\n &lt;a href=&quot;\nhttp://m.primetimeshow.in/share-1B33_542648CD.html&quot; rel=&quot;nofollow&quot; target=&quot;_NEW&quot;&gt;\nhttp://m.primetimeshow.in/share-1B33_542648CD.html&lt;/a&gt;\n &lt;a href=&quot;\nhttp://m.primetimeshow.in/share-EEFC_542648CD.html&quot; rel=&quot;nofollow&quot; target=&quot;_NEW&quot;&gt;\nhttp://m.primetimeshow.in/share-EEFC_542648CD.html&lt;/a&gt;\n &lt;a href=&quot;\nhttp://m.primetimeshow.in/share-9C01_542648CD.html&quot; rel=&quot;nofollow&quot; target=&quot;_NEW&quot;&gt;\nhttp://m.primetimeshow.in/share-9C01_542648CD.html&lt;/a&gt;\n &lt;a href=&quot;\nhttp://m.primetimeshow.in/share-4047_542648CD.html&quot; rel=&quot;nofollow&quot; target=&quot;_NEW&quot;&gt;\nhttp://m.primetimeshow.in/share-4047_542648CD.html&lt;/a&gt;\n &lt;a href=&quot;\nhttp://m.primetimeshow.in/share-9836_542648CD.html&quot; rel=&quot;nofollow&quot; target=&quot;_NEW&quot;&gt;\nhttp://m.primetimeshow.in/share-9836_542648CD.html&lt;/a&gt;\n\n\nGeneral\nComplete name : Balwinder Singh Famous Ho Gaya (2014) - 1CD - DVDSCR-Rip - Hindi - XviD - MP3 - Mafiaking - TeamTNT.avi\nFormat : AVI\nFormat/Info : Audio Video Interleave\nFile size : 701 MiB\nDuration : 2h 4mn\nOverall bit rate : 785 Kbps\n\n\nVideo\nID : 0\nFormat : MPEG-4 Visual\nFormat profile : Advanced Simple@L5\nFormat settings, BVOP : 2\nFormat settings, QPel : No\nFormat settings, GMC : No warppoints\nFormat settings, Matrix : Default (H.263)\nCodec ID : XVID\nCodec ID/Hint : XviD\nDuration : 2h 4mn\nBit rate : 699 Kbps\nWidth : 640 pixels\nHeight : 272 pixels\nDisplay aspect ratio : 2.35:1\nFrame rate : 25.000 fps\nColor space : YUV\nChroma subsampling : 4:2:0\nBit depth : 8 bits\nScan type : Progressive\nCompression mode : Lossy\nBits/(Pixel*Frame) : 0.161\nStream size : 624 MiB (89%)\nWriting library : XviD 1.2.1 (UTC 2008-12-04)\n\n\nAudio\nID : 1\nFormat : MPEG Audio\nFormat version : Version 1\nFormat profile : Layer 3\nMode : Joint stereo\nMode extension : MS Stereo\nCodec ID : 55\nCodec ID/Hint : MP3\nDuration : 2h 4mn\nBit rate mode : Constant\nBit rate : 80.0 Kbps\nChannel(s) : 2 channels\nSampling rate : 32.0 KHz\nCompression mode : Lossy\nStream size : 71.5 MiB (10%)\nAlignment : Aligned on interleaves\nInterleave, duration : 160 ms (4.00 video frames)\nInterleave, preload duration : 216 ms\nTitle : Mafiaking\nWriting library : LAME3.99r\nEncoding settings : -m j -V 4 -q 2 -lowpass 13.5 -b 80\n\nThansk to Mafiaking - TeamTNT!!\n\nSeed n ENjoy!!","torrent":{"xt":"urn:btih:c8bc4515af2cf73e2da4b1c8b311aab3c38a7894","amp;dn":"Balwinder+Singh+Famous+Ho+Gaya+%282014%29+-+1CD+-+DVDSCR-Rip+-+Hindi","amp;tr":["udp%3A%2F%2Ftracker.openbittorrent.com%3A80","udp%3A%2F%2Fopen.demonii.com%3A1337","udp%3A%2F%2Ftracker.coppersurfer.tk%3A6969","udp%3A%2F%2Fexodus.desync.com%3A6969"],"infoHash":"c8bc4515af2cf73e2da4b1c8b311aab3c38a7894","infoHashBuffer":{"type":"Buffer","data":[200,188,69,21,175,44,247,62,45,164,177,200,179,17,170,179,195,138,120,148]},"announce":[],"urlList":[]}}